<svg id="Laag_1" data-name="Laag 1" xmlns="http://www.w3.org/2000/svg" viewBox="0 0 425.2 37.13"><defs><style>.cls-1{fill:#1d1d1b;}</style></defs><title>190619_StudioHenk_Logo zwart</title><path class="cls-1" d="M20.88,22.32c-4.92-1.84-7.74-2.82-7.74-5.95,0-2.41,2.41-4.31,5.49-4.31,4.46,0,7.43,4.06,7.43,4.06l4.26-4.21A15.44,15.44,0,0,0,18.63,6.22c-7.23,0-11.75,5.07-11.75,10.15,0,6.67,6,9.54,11.23,11.39,4.26,1.48,6.57,2.56,6.57,5.59S21.5,37.5,18.42,37.5c-5.44,0-8.51-5.38-8.51-5.38L5.29,36a15.7,15.7,0,0,0,13.13,7.34c6.77,0,12.51-3.49,12.51-10S26.37,24.37,20.88,22.32Z" transform="translate(-5.29 -6.22)"/><polygon class="cls-1" points="37.09 6.46 46.99 6.46 46.99 36.51 53.14 36.51 53.14 6.46 63.04 6.46 63.04 0.61 37.09 0.61 37.09 6.46"/><path class="cls-1" d="M104.65,28.94c0,5.13-2.62,8.56-7.69,8.56s-7.7-3.43-7.7-8.56V6.83H83.11V29.71c0,7.89,5.38,13.64,13.85,13.64S110.8,37.6,110.8,29.71V6.83h-6.15Z" transform="translate(-5.29 -6.22)"/><path class="cls-1" d="M140.25,6.83H128.66v35.9h11.59c10.46,0,17.75-7.59,17.75-17.95S150.71,6.83,140.25,6.83Zm.11,30.06h-5.54V12.68h5.54c7,0,11.38,5.54,11.38,12.1S147.33,36.89,140.36,36.89Z" transform="translate(-5.29 -6.22)"/><rect class="cls-1" x="167.18" y="0.62" width="6.16" height="35.9"/><path class="cls-1" d="M211.25,6.22c-10.47,0-18.16,8-18.16,18.56s7.69,18.57,18.16,18.57,18.15-8,18.15-18.57S221.71,6.22,211.25,6.22Zm0,31.28c-7.23,0-11.9-5.79-11.9-12.72s4.67-12.72,11.9-12.72,11.89,5.8,11.89,12.72S218.48,37.5,211.25,37.5Z" transform="translate(-5.29 -6.22)"/><polygon class="cls-1" points="286.75 15.23 271.41 15.23 271.41 0.61 265.26 0.61 265.26 36.51 271.41 36.51 271.41 21.08 286.75 21.08 286.75 36.51 292.9 36.51 292.9 0.61 286.75 0.61 286.75 15.23"/><polygon class="cls-1" points="316.91 21.03 331.27 21.03 331.27 15.18 316.91 15.18 316.91 6.46 332.5 6.46 332.5 0.61 310.76 0.61 310.76 36.51 332.81 36.51 332.81 30.67 316.91 30.67 316.91 21.03"/><polygon class="cls-1" points="372.51 25.33 354.56 0.61 349.02 0.61 349.02 36.51 355.18 36.51 355.18 11.85 373.13 36.51 378.67 36.51 378.67 0.61 372.51 0.61 372.51 25.33"/><path class="cls-1" d="M429.74,37.65c-2.85.61-5.71-.9-8.55-6l-5.09-9.22L428.49,6.83h-7.7L408,22.94V6.83h-6.15v35.9H408V32.59l4.09-5.13,3.67,6.64c4.33,7.84,9.38,10.23,14.76,8.88Z" transform="translate(-5.29 -6.22)"/></svg>